<?xml version="1.0" encoding="utf-8"?>
<!-- Generator: Adobe Illustrator 21.0.0, SVG Export Plug-In . SVG Version: 6.00 Build 0)  -->
<svg version="1.1" id="Layer_1" xmlns="http://www.w3.org/2000/svg" xmlns:xlink="http://www.w3.org/1999/xlink" x="0px" y="0px"
	 viewBox="0 0 230 24.7" style="enable-background:new 0 0 230 24.7;" xml:space="preserve">
<style type="text/css">
	.st0{fill:#002828;}
	.st1{fill:none;}
	.st2{enable-background:new    ;}
</style>
<g>
	<path class="st0" d="M29.3,0.1c-0.1,0-0.1,0-0.2,0l0,0C29.2,0,29.2,0,29.3,0.1"/>
	<path class="st0" d="M87.1,28.6c-0.1,0-0.2,0-0.3,0"/>
	<path class="st0" d="M41.3,2.6c-0.1,2.1-0.2,4.1-0.3,6.2c-0.4,0-0.8,0-1.3,0c0-0.4,0-0.7,0-1.1c-0.1-1.2-0.4-2.3-1.1-3.2
		c-1-1.5-2.6-2.1-4.4-1.7c-1.3,0.3-2.4,1.1-3.3,2c-1.3,1.4-2.2,3-2.8,4.8c-0.9,2.4-1.2,4.8-1.1,7.3c0.1,1.2,0.3,2.4,0.9,3.4
		c0.7,1.3,1.9,2,3.3,2.1c0.8,0.1,1.6,0,2.4-0.4c0.6-0.2,1.1-0.7,1.2-1.3c0.3-1.4,0.6-2.8,0.9-4.1c0.2-0.7,0.3-1.4,0.5-2
		c0.1-0.7,0-1-0.7-1.3C34.7,13.1,34,13,33.2,13c-0.5,0-0.9-0.1-1.4-0.1c0-0.3,0-0.6,0-0.8c3.3,0,6.6,0,10,0c0,0.1-0.1,0.1-0.1,0.2
		c-1.3,1.7-2.1,3.7-2.4,5.8c-0.1,0.9-0.2,1.8,0,2.7c0,0,0,0,0,0.1c0.2,0.4,0,0.6-0.3,0.8c-0.8,0.7-1.8,1-2.7,1.3
		c-1.8,0.6-3.7,0.9-5.6,0.8c-2.6-0.1-5-1-6.8-3c-1-1.2-1.6-2.5-1.8-4.1c-0.4-3.4,0.3-6.6,2.2-9.5c1.5-2.2,3.5-3.9,6-4.9
		c2.7-1,5.4-1.1,8.1-0.3c0.7,0.2,1.5,0.4,2.2,0.6C40.9,2.6,41.1,2.6,41.3,2.6z"/>
	<path class="st0" d="M69.2,10.5c0.2-0.5,0.3-1,0.5-1.4c0-0.1,0.1-0.2,0.2-0.2c1-0.1,2.1-0.1,3.1-0.2c0,0,0,0,0.1,0
		C73.1,8.9,73,9,73,9.2c-0.9,3.3-1.9,6.7-2.8,10c-0.1,0.5-0.2,1-0.3,1.5c0,0.2,0,0.4,0.2,0.5s0.4,0.1,0.6-0.1
		c0.3-0.2,0.6-0.5,0.8-0.8c0.3-0.3,0.5-0.7,0.7-1c0.1-0.1,0.1-0.2,0.2-0.3c0.2,0.2,0.4,0.3,0.7,0.5c-0.9,1.4-1.8,2.7-3.1,3.6
		c-0.6,0.4-1.2,0.5-1.8,0.4c-0.9-0.2-1.6-0.9-1.7-1.9c-0.1-0.6,0-1.1,0.2-1.7c-0.1,0.1-0.2,0.2-0.2,0.4c-0.6,1-1.3,1.9-2.3,2.6
		c-1.2,0.8-2.5,0.9-3.7,0.1c-0.8-0.5-1.2-1.3-1.4-2.2c-0.3-1.4-0.2-2.7,0.2-4c0.7-2.4,1.9-4.5,3.7-6.4c0.8-0.8,1.8-1.5,2.9-1.9
		c0.6-0.2,1.2-0.3,1.8-0.2c0.6,0.1,1.1,0.4,1.3,1C68.9,9.8,69,10.1,69.2,10.5z M68.5,11.5c-0.1-0.4-0.1-0.7-0.2-1.1
		c-0.1-0.3-0.4-0.5-0.7-0.6c-0.5-0.1-0.9,0-1.2,0.3c-0.6,0.4-1,1-1.3,1.6c-1.3,2.2-2.1,4.6-2.6,7.1c-0.1,0.6-0.1,1.2,0.2,1.8
		c0.3,0.6,0.8,0.8,1.5,0.6c0.3-0.1,0.5-0.3,0.8-0.4c0.5-0.4,0.8-0.9,1.1-1.4c0.9-1.5,1.5-3.2,1.9-4.9C68.2,13.5,68.4,12.5,68.5,11.5
		z"/>
	<path class="st0" d="M50.3,10.5c0.2-0.5,0.3-1,0.5-1.4c0-0.1,0.1-0.2,0.2-0.2c1-0.1,2.1-0.1,3.1-0.2c0,0,0,0,0.1,0
		c0,0.1,0,0.2-0.1,0.3c-1,3.5-1.9,6.9-2.9,10.4c-0.1,0.4-0.2,0.7-0.3,1.1c-0.1,0.3-0.1,0.6,0.2,0.8c0.3,0.2,0.5,0,0.8-0.1
		c0.3-0.3,0.6-0.6,0.9-0.8v0.1c0,0.4-0.1,0.7-0.1,1.1c0,0.1,0,0.2-0.1,0.2c-0.6,0.7-1.2,1.2-2,1.6c-0.6,0.3-1.2,0.4-1.8,0.1
		c-0.9-0.4-1.3-1.1-1.4-2.1c0-0.5,0.1-0.9,0.1-1.3c-0.3,0.4-0.6,0.9-1,1.3c-0.4,0.6-1,1.1-1.6,1.5c-1.6,1.1-4.4,0.8-5.1-2
		c-0.3-1.3-0.2-2.6,0.1-3.9c0.8-2.8,2.2-5.2,4.4-7.1c0.8-0.7,1.7-1.3,2.8-1.4c0.4-0.1,0.9-0.1,1.3,0c0.6,0.1,1,0.4,1.2,0.9
		C50,9.8,50.1,10.1,50.3,10.5z M49.6,11.5c0-0.2,0-0.4-0.1-0.6c-0.1-0.6-0.4-1-1-1.1c-0.4-0.1-0.7,0-1,0.2s-0.6,0.5-0.8,0.8
		c-0.7,0.9-1.2,1.9-1.7,2.9c-0.7,1.7-1.3,3.5-1.6,5.3c-0.1,0.6,0,1.1,0.3,1.6s0.7,0.7,1.3,0.6c0.4-0.1,0.7-0.2,1-0.5
		c0.4-0.4,0.8-0.9,1.1-1.4c0.9-1.5,1.5-3.2,1.9-4.9C49.3,13.5,49.6,12.5,49.6,11.5z"/>
	<path class="st0" d="M58.4,20.1c0.1,0.3,0.1,0.6,0.1,0.9c0,0.1,0,0.1,0,0.2c-0.5,0.7-1.1,1.4-1.9,1.8c-0.7,0.4-1.5,0.6-2.3,0.4
		c-0.7-0.1-1.1-0.6-1.2-1.3c-0.1-0.9,0-1.7,0.2-2.5c0.6-2.4,1.2-4.8,1.8-7.2c0.7-2.7,1.4-5.5,2.1-8.2C57.4,3.6,57,3.1,56.4,3
		c-0.3,0-0.7,0-1,0c0-0.3,0-0.6,0-0.8c2.1-0.3,4.2-0.6,6.3-1v0.1c-1.6,6-3.2,11.9-4.7,17.9c-0.1,0.4-0.2,0.8-0.3,1.1
		c0,0.2,0,0.3,0,0.5c0.1,0.3,0.3,0.4,0.6,0.3c0.2-0.1,0.4-0.3,0.6-0.4C58,20.6,58.2,20.4,58.4,20.1z"/>
</g>
<g>
	<path class="st0" d="M18.3,7.7c-0.1,1.5-0.7,2.7-1.5,3.9c-0.8,1.1-1.6,2.2-2.3,3.3c-0.3,0.5-0.7,1.1-0.9,1.7
		c-0.1,0.2-0.1,0.4-0.2,0.6c0,0.1,0,0.1,0,0.2c-0.1,0.1-0.1,0.1-0.2,0.3c-0.4,0.4-1.1,0.5-1.8,0.6c0,0-0.2,0-0.3,0l0,0l0,0
		c-0.2,0-0.3,0-0.5,0l0,0c0.4-1.1,0.5-2.2,0.7-3.3c0.1-0.6,0.3-1.2,0.6-1.7c0.3-0.6,0.8-1.1,1.3-1.5c1-0.8,1.8-1.5,2.3-2.7
		C16,8.2,16.2,7,15.8,6.2C15.2,4.9,13.2,5,12,5.4c-0.6,0.2-1,0.7-1.4,1.2c-0.1-0.4-0.3-0.7-0.4-0.8c-0.4-0.7-1.1-1.5-2-1.6
		C7.4,4,6.4,4.6,5.9,5.2C5.7,5.5,5.7,5.9,5.7,6.3c0,0.6,0,1.2,0.1,1.8c0.2,1.2,0.7,2.4,1.4,3.4s1.5,2,2,3.1s0.7,2.3,0.7,3.6
		c-0.2,0-0.5-0.1-0.7-0.1c-0.1,0-1.5-0.3-1.8-0.6l0,0c0-0.1,0-0.2-0.1-0.3c0-0.2-0.1-0.4-0.2-0.6c-0.2-0.6-0.6-1.1-0.9-1.7
		c-0.7-1.2-1.6-2.2-2.3-3.3C3,10.4,2.4,9.1,2.4,7.7c0-1.3,0.2-2.8,0.9-3.9c1.4-2.3,4.3-3.4,7-3.4h0.1l0,0l0,0l0,0l0,0h0.1
		c2.6,0,5.5,1.1,7,3.4C18.1,4.9,18.4,6.4,18.3,7.7L18.3,7.7z M10.6,7c0.1,0.2,0.1,0.5,0.1,0.7s0,0.4-0.1,0.6c-0.1,0.1-0.3,0.3-0.4,0
		c0-0.1,0-0.3,0-0.4C10.4,7.6,10.5,7.3,10.6,7L10.6,7z M10.3,7.3c-0.1,0.3-0.5,1.4,0.1,1.4c0.8,0,0.6-1,0.3-1.9
		c0.8-1.3,2.4-1.8,3.9-1.3C15.8,5.9,15.9,7,15.7,8c-0.1,0.7-0.5,1.4-0.9,2s-1,1-1.6,1.4c-1,0.8-1.6,1.8-1.9,3
		c-0.3,1.2-0.4,2.4-0.8,3.6l0,0c-0.2,0-0.3,0-0.4,0c0-1.2-0.2-2.4-0.6-3.5c-0.5-1.2-1.3-2.2-2-3.3c-1-1.1-1.5-2.5-1.6-4
		c0-0.6-0.1-1.3,0.2-1.8c0.3-0.6,1.3-1,1.9-1c1.1,0,2,1.3,2.4,2.2c0,0.1,0.1,0.2,0.1,0.3S10.4,7.1,10.3,7.3L10.3,7.3z M13.7,17.7
		C13.7,17.7,13.6,17.7,13.7,17.7c-0.3,0.6-1,0.8-1.5,0.9c-0.7,0.2-1.4,0.2-2.1,0.2c-0.8,0-1.5-0.3-2.2-0.6c-0.3-0.1-0.6-0.3-0.8-0.5
		C7,17.6,7,17.6,6.9,17.5c0.1,0,0.1-0.1,0.2,0c0,0,0,0,0.1,0.1c0.4,0.4,0.7,0.4,1,0.5c0.6,0.1,1.2,0.2,1.7,0.3
		c1,0.1,2.5,0.2,3.3-0.5l0,0c0.1-0.1,0.2-0.3,0.3-0.3C13.7,17.5,13.7,17.6,13.7,17.7L13.7,17.7z M13.7,18.5
		C13.6,18.6,13.6,18.6,13.7,18.5c-0.1,0.2-0.2,0.2-0.2,0.3c-0.2,0.2-0.6,0.3-0.8,0.4c-0.8,0.3-1.6,0.4-2.5,0.3
		c-0.8,0-1.5-0.1-2.2-0.3c-0.4-0.1-0.7-0.3-1-0.5c-0.2-0.2-0.3-0.4-0.3-0.6c0-0.1,0-0.3,0.1-0.4C7,17.8,7.2,18,7.4,18.2
		c0.3,0.2,0.7,0.4,1.1,0.5C9.2,18.9,10,19,10.8,19s2.4-0.2,2.9-1C13.7,18.3,13.7,18.5,13.7,18.5L13.7,18.5z M13.8,19.1L13.8,19.1
		c-0.3,0.6-1.1,0.7-1.6,0.8c-0.7,0.1-1.4,0.2-2.2,0.2c-0.7,0-1.4-0.1-2.1-0.2c-0.4-0.1-1.4-0.3-1.4-0.9l0,0l0.1-0.1h0.1l0,0l0,0l0,0
		c0,0,0,0,0.1,0.1c0.8,0.8,2.3,0.8,3.3,0.9c1.1,0,2.7-0.1,3.5-0.9C13.7,18.9,13.8,19,13.8,19.1L13.8,19.1z M13.9,19.3
		c0.1,0.3,0,0.6,0,0.8c-0.1,0.4-0.7,0.6-1,0.7C12,21,11,21,10.1,21c-1,0-1.9-0.2-2.8-0.4c-0.2,0-0.3-0.1-0.5-0.1
		c-0.2-0.1-0.3-0.3-0.3-0.5c-0.1-0.2-0.1-0.5-0.1-0.7c0.2,0.3,0.6,0.5,0.9,0.6c0.7,0.3,1.4,0.3,2.2,0.4c0.9,0.1,1.8,0,2.8-0.2
		C12.8,20,13.6,19.8,13.9,19.3L13.9,19.3z M6.9,21c0-0.1,0-0.1,0.1-0.2c0.3,0.1,0.6,0.1,0.8,0.2c0.7,0.2,1.4,0.2,2,0.3
		c1.2,0.1,2.7,0,3.8-0.5v0.1l0,0c-0.2,0.4-1,0.5-1.4,0.5c-0.7,0.1-1.5,0.1-2.3,0.1c-0.5,0-1,0-1.5,0C8,21.3,7.3,21.3,6.9,21L6.9,21z
		 M13.7,21.5c-0.2,0.3-0.5,0.4-0.8,0.5c-0.7,0.2-1.5,0.2-2.2,0.2c-0.6,0-1.2,0-1.8,0c-0.3,0-0.6,0-0.9,0c0,0,0,0-0.1,0
		s-0.3,0-0.4-0.1C7,22,6.9,21.6,6.9,21.2c0.3,0.2,0.7,0.3,1.1,0.3c0.7,0.1,1.3,0,2,0.1c0.9,0,1.7,0,2.6-0.1c0.4-0.1,0.9-0.2,1.2-0.5
		C13.8,21.1,13.8,21.3,13.7,21.5L13.7,21.5z M12.6,22.4C12.6,22.4,12.5,22.4,12.6,22.4c-0.7,0.5-2,0.4-2.8,0.3
		c-0.4,0-0.7-0.1-1.1-0.2c-0.2,0-0.4-0.1-0.6,0c0-0.1,0-0.1-0.1-0.2c0.8,0.1,1.7,0,2.5,0c0.7,0,1.5,0,2.2-0.1
		C12.6,22.3,12.6,22.4,12.6,22.4L12.6,22.4z M12.1,23.6c-0.5,0.4-1.4,0.3-2,0.2c-0.4,0-1,0-1.3-0.2c-0.2-0.2-0.5-0.5-0.6-0.9
		c0.2-0.1,0.8,0.1,1,0.1c0.3,0,0.6,0.1,0.9,0.1c0.8,0,1.8,0.2,2.6-0.3C12.5,23,12.4,23.3,12.1,23.6L12.1,23.6z M10.7,24.5
		c-0.4,0.1-0.9-0.1-1-0.6c0.1,0,0.2,0,0.3,0c0.4,0,0.8,0,1.2,0C11.1,24.2,11,24.5,10.7,24.5L10.7,24.5z M17.9,4.2
		c-0.9-2.1-3.2-3.4-5.4-3.8c-0.7-0.1-1.4-0.2-2.1-0.2l0,0l0,0l0,0l0,0C9.7,0.2,9,0.3,8.3,0.4C6.1,0.8,3.7,2.1,2.8,4.2
		C2.3,5.4,2,6.7,2.2,8c0.1,1.3,0.7,2.4,1.4,3.5c0.8,1.2,1.8,2.4,2.5,3.6C6.4,15.7,6.8,16.3,7,17c0,0.1,0,0.2,0,0.3l0,0
		c-0.2,0-0.3,0.1-0.4,0.3l0,0c-0.1,0.1-0.1,0.2-0.1,0.3c-0.1,0.3,0,0.6,0.1,0.9l0,0c-0.7,0.1-0.5,1.3-0.1,1.7
		c0.1,0.1,0.2,0.2,0.4,0.2c0,0.1-0.1,0.2-0.1,0.3l0,0c-0.1,0.3,0,0.5,0.1,0.8c0.2,0.4,0.5,0.5,0.9,0.5l0,0c0.1,0.5,0.4,1.1,0.8,1.4
		C8.8,23.9,9.2,24,9.5,24l0,0c0.1,0.5,0.5,0.7,1,0.8c0.5,0,0.7-0.4,1-0.7l0,0c0.3,0,0.6-0.1,0.8-0.3c0.4-0.3,0.5-1,0.5-1.5
		c0.1,0,0.2-0.1,0.3-0.1c0.8-0.3,1-0.8,0.7-1.6c0.3-0.2,0.3-0.6,0.3-0.9S14,19,13.8,18.8c0.2-0.4,0.3-1.4-0.2-1.4c0-0.1,0-0.2,0-0.3
		c0.2-0.7,0.6-1.3,0.9-1.9c0.7-1.3,1.7-2.4,2.5-3.6c0.7-1.1,1.2-2.2,1.4-3.5C18.6,6.7,18.4,5.4,17.9,4.2L17.9,4.2z"/>
</g>
<rect x="79.3" y="15.7" class="st1" width="140.3" height="10.7"/>
<g class="st2">
	<path class="st0" d="M81.8,16.2l3.1,6.1l3.1-6.1h1.2v8.4h-0.9l0-7l-3.1,6.1h-0.6l-3-6.1v7h-0.9v-8.4H81.8z"/>
	<path class="st0" d="M97.3,21.4c0,1.9-1.3,3.2-3.2,3.2c-1.9,0-3.2-1.3-3.2-3.2c0-1.9,1.3-3.2,3.2-3.2C96,18.2,97.3,19.5,97.3,21.4z
		 M91.8,21.4c0,1.4,0.9,2.4,2.3,2.4c1.3,0,2.3-1,2.3-2.4c0-1.4-0.9-2.4-2.3-2.4C92.8,19.1,91.8,20,91.8,21.4z"/>
	<path class="st0" d="M104.7,20.7v3.9h-0.9v-3.6c0-1.1-0.7-1.8-1.8-1.8c-1.2,0-2,0.8-2.1,2.1v3.4h-0.9v-6.3h0.9v1.4
		c0.4-1,1.3-1.4,2.4-1.4C103.8,18.2,104.7,19.2,104.7,20.7z"/>
	<path class="st0" d="M112.9,19.1c-1.3,0-2.2,1-2.2,2.4c0,1.4,0.9,2.4,2.2,2.4c0.8,0,1.5-0.3,2-0.8l0.5,0.6
		c-0.6,0.7-1.4,1.1-2.5,1.1c-1.8,0-3.1-1.3-3.1-3.2c0-1.9,1.3-3.2,3.1-3.2c1,0,1.9,0.3,2.4,0.9l-0.5,0.6
		C114.3,19.3,113.7,19.1,112.9,19.1z"/>
	<path class="st0" d="M120.7,24.6v-1c-0.5,0.7-1.3,1-2.3,1c-1.3,0-2.1-0.8-2.1-1.9c0-1.1,0.9-1.8,2.4-1.8h2.1v-0.4
		c0-0.9-0.6-1.5-1.7-1.5c-0.7,0-1.3,0.3-2,0.7l-0.4-0.7c0.8-0.5,1.5-0.9,2.6-0.9c1.6,0,2.4,0.8,2.4,2.2l0,4.2H120.7z M120.7,22.4
		v-0.8h-2c-1.1,0-1.6,0.3-1.6,1c0,0.7,0.6,1.2,1.5,1.2C119.7,23.8,120.5,23.3,120.7,22.4z"/>
	<path class="st0" d="M126.9,18.2v0.9c-1.3,0-2.2,0.8-2.3,2.1v3.4h-0.9v-6.3h0.9v1.4C125.1,18.7,125.9,18.2,126.9,18.2z"/>
	<path class="st0" d="M134,20.7v3.9H133v-3.6c0-1.1-0.7-1.8-1.8-1.8c-1.2,0-2,0.8-2.1,2.1v3.4h-0.9v-6.3h0.9v1.4
		c0.4-1,1.3-1.4,2.4-1.4C133.1,18.2,134,19.2,134,20.7z"/>
	<path class="st0" d="M141.5,21.8h-5.2c0.2,1.2,1.1,2.1,2.3,2.1c0.8,0,1.5-0.3,2-0.8l0.5,0.5c-0.6,0.7-1.5,1-2.5,1
		c-1.9,0-3.1-1.3-3.1-3.2s1.3-3.2,3.1-3.2C140.6,18.2,141.6,19.6,141.5,21.8z M140.7,21c-0.1-1.2-0.9-2-2.1-2c-1.2,0-2.1,0.8-2.2,2
		H140.7z"/>
	<path class="st0" d="M146.4,24.1c-0.4,0.3-0.9,0.5-1.4,0.5c-0.9,0-1.6-0.5-1.6-1.8v-3.6h-0.9v-0.7h0.9v-1.7h0.9v1.7h2v0.7h-2v3.5
		c0,0.8,0.3,1.1,0.8,1.1c0.3,0,0.7-0.1,1-0.3L146.4,24.1z"/>
	<path class="st0" d="M157.2,15.7v8.9h-0.9v-1.4c-0.5,0.9-1.3,1.4-2.5,1.4c-1.8,0-3-1.3-3-3.2s1.2-3.2,3-3.2c1.1,0,2,0.5,2.5,1.4v-4
		H157.2z M156.3,21.4c0-1.4-0.9-2.4-2.3-2.4c-1.3,0-2.3,1-2.3,2.4c0,1.4,0.9,2.4,2.3,2.4C155.3,23.8,156.3,22.8,156.3,21.4z"/>
	<path class="st0" d="M160.2,16.8c0,0.2-0.1,0.3-0.2,0.5l-0.6,0.9h-0.5l0.4-0.9c-0.2-0.1-0.3-0.3-0.3-0.5c0-0.3,0.2-0.6,0.6-0.6
		C159.9,16.2,160.2,16.4,160.2,16.8z"/>
	<path class="st0" d="M165.8,24.6v-1c-0.5,0.7-1.3,1-2.3,1c-1.3,0-2.1-0.8-2.1-1.9c0-1.1,0.9-1.8,2.4-1.8h2.1v-0.4
		c0-0.9-0.6-1.5-1.7-1.5c-0.7,0-1.3,0.3-2,0.7l-0.4-0.7c0.8-0.5,1.5-0.9,2.6-0.9c1.6,0,2.4,0.8,2.4,2.2l0,4.2H165.8z M165.8,22.4
		v-0.8h-2c-1.1,0-1.6,0.3-1.6,1c0,0.7,0.6,1.2,1.5,1.2C164.8,23.8,165.6,23.3,165.8,22.4z"/>
	<path class="st0" d="M174.6,15.7v8.9h-0.9v-1.4c-0.5,0.9-1.3,1.4-2.5,1.4c-1.8,0-3-1.3-3-3.2s1.2-3.2,3-3.2c1.1,0,2,0.5,2.5,1.4v-4
		H174.6z M173.7,21.4c0-1.4-0.9-2.4-2.3-2.4c-1.3,0-2.3,1-2.3,2.4c0,1.4,0.9,2.4,2.3,2.4C172.8,23.8,173.7,22.8,173.7,21.4z"/>
	<path class="st0" d="M180.2,18.2v0.9c-1.3,0-2.2,0.8-2.3,2.1v3.4H177v-6.3h0.9v1.4C178.3,18.7,179.1,18.2,180.2,18.2z"/>
	<path class="st0" d="M186.9,21.8h-5.2c0.2,1.2,1.1,2.1,2.3,2.1c0.8,0,1.5-0.3,2-0.8l0.5,0.5c-0.6,0.7-1.5,1-2.5,1
		c-1.9,0-3.1-1.3-3.1-3.2s1.3-3.2,3.1-3.2C186,18.2,187,19.6,186.9,21.8z M186,21c-0.1-1.2-0.9-2-2.1-2c-1.2,0-2.1,0.8-2.2,2H186z"
		/>
	<path class="st0" d="M190.1,19c-0.7,0-1.2,0.3-1.2,0.9c0,1.4,3.5,0.7,3.5,3c0,1.2-1.1,1.8-2.3,1.8c-0.9,0-1.8-0.3-2.4-0.9L188,23
		c0.5,0.5,1.4,0.8,2.1,0.8s1.3-0.3,1.4-0.9c0-1.5-3.5-0.8-3.5-3c0-1.2,1-1.7,2.2-1.7c0.8,0,1.5,0.2,2,0.6l-0.4,0.7
		C191.3,19.2,190.7,19,190.1,19z"/>
	<path class="st0" d="M195.6,19c-0.7,0-1.2,0.3-1.2,0.9c0,1.4,3.5,0.7,3.5,3c0,1.2-1.1,1.8-2.3,1.8c-0.9,0-1.8-0.3-2.4-0.9l0.4-0.7
		c0.5,0.5,1.4,0.8,2.1,0.8c0.7,0,1.3-0.3,1.4-0.9c0-1.5-3.5-0.8-3.5-3c0-1.2,1-1.7,2.2-1.7c0.8,0,1.5,0.2,2,0.6l-0.4,0.7
		C196.8,19.2,196.1,19,195.6,19z"/>
	<path class="st0" d="M204.8,21.8h-5.2c0.2,1.2,1.1,2.1,2.3,2.1c0.8,0,1.5-0.3,2-0.8l0.5,0.5c-0.6,0.7-1.5,1-2.5,1
		c-1.9,0-3.1-1.3-3.1-3.2s1.3-3.2,3.1-3.2C203.9,18.2,204.9,19.6,204.8,21.8z M204,21c-0.1-1.2-0.9-2-2.1-2c-1.2,0-2.1,0.8-2.2,2
		H204z"/>
</g>
</svg>
