<?xml version="1.0" encoding="utf-8"?>
<!-- Generator: Adobe Illustrator 21.0.0, SVG Export Plug-In . SVG Version: 6.00 Build 0)  -->
<svg version="1.1" id="Layer_1" xmlns="http://www.w3.org/2000/svg" xmlns:xlink="http://www.w3.org/1999/xlink" x="0px" y="0px"
	 viewBox="0 0 251.2 55" style="enable-background:new 0 0 251.2 55;" xml:space="preserve">
<style type="text/css">
	.st0{fill:#FFFFFF;}
	.st1{fill:#FFFFFF;stroke:#FFFFFF;stroke-width:0.5;stroke-miterlimit:10;}
	.st2{fill:none;}
	.st3{enable-background:new    ;}
</style>
<g>
	<path class="st0" d="M33.7,13.2c-0.1,0-0.1,0-0.2,0l0,0C33.6,13.1,33.6,13.1,33.7,13.2"/>
	<path class="st0" d="M93.1,42.5c-0.1,0-0.2,0-0.3,0"/>
	<path class="st0" d="M46.1,15.8C46,18,45.9,20,45.8,22.2c-0.4,0-0.8,0-1.3,0c0-0.4,0-0.7,0-1.1c-0.1-1.2-0.4-2.4-1.1-3.3
		c-1-1.5-2.7-2.2-4.5-1.7c-1.3,0.3-2.5,1.1-3.4,2.1c-1.3,1.4-2.3,3.1-2.9,4.9c-0.9,2.5-1.2,4.9-1.1,7.5c0.1,1.2,0.3,2.5,0.9,3.5
		c0.7,1.3,2,2.1,3.4,2.2c0.8,0.1,1.6,0,2.5-0.4c0.6-0.2,1.1-0.7,1.2-1.3c0.3-1.4,0.6-2.9,0.9-4.2c0.2-0.7,0.3-1.4,0.5-2.1
		c0.1-0.7,0-1-0.7-1.3c-0.8-0.2-1.5-0.3-2.4-0.3c-0.5,0-0.9-0.1-1.4-0.1c0-0.3,0-0.6,0-0.8c3.4,0,6.8,0,10.3,0
		c0,0.1-0.1,0.1-0.1,0.2c-1.3,1.7-2.2,3.8-2.5,6c-0.1,0.9-0.2,1.8,0,2.8c0,0,0,0,0,0.1c0.2,0.4,0,0.6-0.3,0.8C43,36.4,42,36.7,41,37
		c-1.8,0.6-3.8,0.9-5.8,0.8c-2.7-0.1-5.1-1-7-3.1c-1-1.2-1.6-2.6-1.8-4.2c-0.4-3.5,0.3-6.8,2.3-9.8c1.5-2.3,3.6-4,6.2-5
		c2.8-1,5.5-1.1,8.3-0.3c0.7,0.2,1.5,0.4,2.3,0.6C45.7,15.8,45.9,15.8,46.1,15.8z"/>
	<path class="st0" d="M74.7,23.9c0.2-0.5,0.3-1,0.5-1.4c0-0.1,0.1-0.2,0.2-0.2c1-0.1,2.2-0.1,3.2-0.2c0,0,0,0,0.1,0
		c0,0.2-0.1,0.3-0.1,0.5c-0.9,3.4-2,6.9-2.9,10.3c-0.1,0.5-0.2,1-0.3,1.5c0,0.2,0,0.4,0.2,0.5s0.4,0.1,0.6-0.1
		c0.3-0.2,0.6-0.5,0.8-0.8c0.3-0.3,0.5-0.7,0.7-1c0.1-0.1,0.1-0.2,0.2-0.3c0.2,0.2,0.4,0.3,0.7,0.5c-0.9,1.4-1.8,2.8-3.2,3.7
		c-0.6,0.4-1.2,0.5-1.8,0.4c-0.9-0.2-1.6-0.9-1.7-2c-0.1-0.6,0-1.1,0.2-1.7c-0.1,0.1-0.2,0.2-0.2,0.4c-0.6,1-1.3,2-2.4,2.7
		c-1.2,0.8-2.6,0.9-3.8,0.1c-0.8-0.5-1.2-1.3-1.4-2.3c-0.3-1.4-0.2-2.8,0.2-4.1c0.7-2.5,2-4.6,3.8-6.6c0.8-0.8,1.8-1.5,3-2
		c0.6-0.2,1.2-0.3,1.8-0.2c0.6,0.1,1.1,0.4,1.3,1C74.4,23.2,74.5,23.5,74.7,23.9z M74,24.9c-0.1-0.4-0.1-0.7-0.2-1.1
		c-0.1-0.3-0.4-0.5-0.7-0.6c-0.5-0.1-0.9,0-1.2,0.3c-0.6,0.4-1,1-1.3,1.6c-1.3,2.3-2.2,4.7-2.7,7.3c-0.1,0.6-0.1,1.2,0.2,1.8
		c0.3,0.6,0.8,0.8,1.5,0.6c0.3-0.1,0.5-0.3,0.8-0.4c0.5-0.4,0.8-0.9,1.1-1.4c0.9-1.5,1.5-3.3,2-5C73.7,27,73.9,25.9,74,24.9z"/>
	<path class="st0" d="M55.3,23.9c0.2-0.5,0.3-1,0.5-1.4c0-0.1,0.1-0.2,0.2-0.2c1-0.1,2.2-0.1,3.2-0.2c0,0,0,0,0.1,0
		c0,0.1,0,0.2-0.1,0.3c-1,3.6-2,7.1-3,10.7c-0.1,0.4-0.2,0.7-0.3,1.1c-0.1,0.3-0.1,0.6,0.2,0.8s0.5,0,0.8-0.1
		c0.3-0.3,0.6-0.6,0.9-0.8v0.1c0,0.4-0.1,0.7-0.1,1.1c0,0.1,0,0.2-0.1,0.2c-0.6,0.7-1.2,1.2-2.1,1.6c-0.6,0.3-1.2,0.4-1.8,0.1
		c-0.9-0.4-1.3-1.1-1.4-2.2c0-0.5,0.1-0.9,0.1-1.3c-0.3,0.4-0.6,0.9-1,1.3c-0.4,0.6-1,1.1-1.6,1.5c-1.6,1.1-4.5,0.8-5.2-2.1
		c-0.3-1.3-0.2-2.7,0.1-4c0.8-2.9,2.3-5.3,4.5-7.3c0.8-0.7,1.7-1.3,2.9-1.4c0.4-0.1,0.9-0.1,1.3,0c0.6,0.1,1,0.4,1.2,0.9
		C55,23.2,55.1,23.5,55.3,23.9z M54.6,24.9c0-0.2,0-0.4-0.1-0.6c-0.1-0.6-0.4-1-1-1.1c-0.4-0.1-0.7,0-1,0.2s-0.6,0.5-0.8,0.8
		c-0.7,0.9-1.2,2-1.7,3c-0.7,1.7-1.3,3.6-1.6,5.4c-0.1,0.6,0,1.1,0.3,1.6s0.7,0.7,1.3,0.6c0.4-0.1,0.7-0.2,1-0.5
		c0.4-0.4,0.8-0.9,1.1-1.4c0.9-1.5,1.5-3.3,2-5C54.3,27,54.6,25.9,54.6,24.9z"/>
	<path class="st0" d="M63.6,33.7c0.1,0.3,0.1,0.6,0.1,0.9c0,0.1,0,0.1,0,0.2c-0.5,0.7-1.1,1.4-2,1.8C61,37,60.2,37.2,59.3,37
		c-0.7-0.1-1.1-0.6-1.2-1.3c-0.1-0.9,0-1.7,0.2-2.6c0.6-2.5,1.2-4.9,1.8-7.4c0.7-2.8,1.4-5.6,2.2-8.4c0.2-0.6-0.2-1.1-0.8-1.2
		c-0.3,0-0.7,0-1,0c0-0.3,0-0.6,0-0.8c2.2-0.3,4.3-0.6,6.5-1v0.1c-1.6,6.2-3.3,12.2-4.8,18.4c-0.1,0.4-0.2,0.8-0.3,1.1
		c0,0.2,0,0.3,0,0.5c0.1,0.3,0.3,0.4,0.6,0.3c0.2-0.1,0.4-0.3,0.6-0.4C63.2,34.3,63.4,34.1,63.6,33.7z"/>
</g>
<g>
	<path class="st1" d="M17.5,19.4c-0.1,1.6-0.7,2.9-1.6,4.1c-0.8,1.2-1.7,2.3-2.4,3.5c-0.3,0.5-0.7,1.2-1,1.8
		c-0.1,0.2-0.1,0.4-0.2,0.6c0,0.1,0,0.1,0,0.2c-0.1,0.1-0.1,0.1-0.2,0.3c-0.4,0.4-1.2,0.5-1.9,0.6c0,0-0.2,0-0.3,0l0,0l0,0
		c-0.2,0-0.3,0-0.5,0l0,0c0.4-1.2,0.5-2.3,0.7-3.5c0.1-0.6,0.3-1.3,0.6-1.8c0.3-0.6,0.8-1.2,1.4-1.6c1.1-0.8,1.9-1.6,2.4-2.9
		c0.5-1,0.7-2.2,0.3-3.1c-0.6-1.4-2.8-1.3-4-0.8c-0.6,0.2-1.1,0.7-1.5,1.3c-0.1-0.4-0.3-0.7-0.4-0.8c-0.4-0.7-1.2-1.6-2.1-1.7
		C6,15.4,4.9,16,4.4,16.7c-0.2,0.3-0.2,0.7-0.2,1.2c0,0.6,0,1.3,0.1,1.9c0.2,1.3,0.7,2.5,1.5,3.6s1.6,2.1,2.1,3.3
		c0.5,1.2,0.7,2.4,0.7,3.8c-0.2,0-0.5-0.1-0.7-0.1c-0.1,0-1.6-0.3-1.9-0.6l0,0c0-0.1,0-0.2-0.1-0.3c0-0.2-0.1-0.4-0.2-0.6
		c-0.2-0.6-0.6-1.2-1-1.8C4,25.8,3,24.8,2.3,23.6c-1-1.3-1.6-2.6-1.6-4.1c0-1.4,0.2-3,1-4.1c1.5-2.4,4.6-3.6,7.4-3.6h0.1l0,0l0,0
		l0,0l0,0h0.1c2.8,0,5.8,1.2,7.4,3.6C17.3,16.4,17.6,18,17.5,19.4L17.5,19.4z M9.3,18.7c0.1,0.2,0.1,0.5,0.1,0.7s0,0.4-0.1,0.6
		c-0.1,0.1-0.3,0.3-0.4,0c0-0.1,0-0.3,0-0.4C9.1,19.3,9.2,19,9.3,18.7L9.3,18.7z M9,19c-0.1,0.3-0.5,1.5,0.1,1.5
		c0.8,0,0.6-1.1,0.3-2c0.8-1.4,2.5-1.9,4.1-1.4c1.3,0.4,1.4,1.6,1.2,2.6c-0.1,0.7-0.5,1.5-1,2.1s-1.1,1.1-1.7,1.5
		c-1.1,0.8-1.7,1.9-2,3.2c-0.3,1.3-0.4,2.5-0.8,3.8l0,0c-0.2,0-0.3,0-0.4,0c0-1.3-0.2-2.5-0.6-3.7c-0.5-1.3-1.4-2.3-2.1-3.5
		C5,22,4.4,20.5,4.3,18.9c0-0.6-0.1-1.4,0.2-1.9c0.3-0.6,1.4-1.1,2-1.1c1.2,0,2.1,1.4,2.5,2.3c0,0.1,0.1,0.2,0.1,0.3
		C9.2,18.7,9.1,18.8,9,19L9,19z M12.6,30C12.6,30,12.5,30,12.6,30c-0.3,0.6-1.1,0.8-1.6,1c-0.7,0.2-1.5,0.2-2.2,0.2
		c-0.8,0-1.6-0.3-2.3-0.6c-0.3-0.1-0.6-0.3-0.8-0.5C5.6,30,5.6,30,5.5,29.9c0.1,0,0.1-0.1,0.2,0c0,0,0,0,0.1,0.1
		c0.4,0.4,0.7,0.4,1.1,0.5c0.6,0.1,1.3,0.2,1.8,0.3c1.1,0.1,2.6,0.2,3.5-0.5l0,0c0.1-0.1,0.2-0.3,0.3-0.3
		C12.6,29.8,12.6,29.9,12.6,30L12.6,30z M12.6,30.9C12.5,31,12.5,31,12.6,30.9c-0.1,0.2-0.2,0.2-0.2,0.3c-0.2,0.2-0.6,0.3-0.8,0.4
		C10.8,31.9,9.9,32,9,31.9c-0.8,0-1.6-0.1-2.3-0.3c-0.4-0.1-0.7-0.3-1.1-0.5c-0.2-0.2-0.3-0.4-0.3-0.6c0-0.1,0-0.3,0.1-0.4
		c0.2,0.1,0.4,0.3,0.6,0.5c0.3,0.2,0.7,0.4,1.2,0.5c0.7,0.2,1.6,0.3,2.4,0.3s2.5-0.2,3.1-1.1C12.6,30.6,12.6,30.9,12.6,30.9
		L12.6,30.9z M12.7,31.5L12.7,31.5c-0.3,0.6-1.2,0.7-1.7,0.8c-0.7,0.1-1.5,0.2-2.3,0.2c-0.7,0-1.5-0.1-2.2-0.2C6,32.2,5,32,5,31.4
		l0,0l0.1-0.1h0.1l0,0l0,0l0,0c0,0,0,0,0.1,0.1c0.8,0.8,2.4,0.8,3.5,1c1.2,0,2.9-0.1,3.7-1C12.6,31.3,12.7,31.4,12.7,31.5L12.7,31.5
		z M12.8,31.7c0.1,0.3,0,0.6,0,0.8c-0.1,0.4-0.7,0.6-1.1,0.7c-1,0.2-2,0.2-3,0.2c-1.1,0-2-0.2-3-0.4c-0.2,0-0.3-0.1-0.5-0.1
		c-0.1,0-0.2-0.2-0.2-0.5c-0.1-0.2-0.1-0.5-0.1-0.7c0.2,0.3,0.6,0.5,1,0.6c0.7,0.3,1.5,0.3,2.3,0.4c1,0.1,1.9,0,3-0.2
		C11.7,32.4,12.5,32.2,12.8,31.7L12.8,31.7z M5.4,33.5c0-0.1,0-0.1,0.1-0.2c0.3,0.1,0.6,0.1,0.8,0.2c0.7,0.2,1.5,0.2,2.1,0.3
		c1.3,0.1,2.9,0,4-0.5v0.1l0,0c-0.2,0.4-1.1,0.5-1.5,0.5C10.3,34,9.4,34,8.6,34c-0.5,0-1.1,0-1.6,0C6.6,33.8,5.8,33.8,5.4,33.5
		L5.4,33.5z M12.6,34c-0.2,0.3-0.5,0.4-0.8,0.5c-0.7,0.2-1.6,0.2-2.3,0.2c-0.6,0-1.3,0-1.9,0c-0.3,0-0.6,0-1,0c0,0,0,0-0.1,0
		s-0.3,0-0.4-0.1c-0.5-0.1-0.6-0.5-0.6-1C5.7,33.9,6.1,34,6.6,34c0.7,0.1,1.4,0,2.1,0.1c1,0,1.8,0,2.8-0.1c0.4-0.1,1-0.2,1.3-0.5
		C12.7,33.6,12.7,33.8,12.6,34L12.6,34z M11.4,35C11.4,35,11.3,35,11.4,35c-0.7,0.5-2.1,0.4-3,0.3c-0.4,0-0.7-0.1-1.2-0.2
		c-0.2,0-0.4-0.1-0.6,0c0-0.1,0-0.1-0.1-0.2c0.8,0.1,1.8,0,2.6,0c0.7,0,1.6,0,2.3-0.1C11.4,34.9,11.4,35,11.4,35L11.4,35z
		 M10.9,36.3c-0.5,0.4-1.5,0.3-2.1,0.2c-0.4,0-1.1,0-1.4-0.2c-0.2-0.2-0.5-0.5-0.6-1c0.2-0.1,0.8,0.1,1.1,0.1s0.6,0.1,1,0.1
		c0.8,0,1.9,0.2,2.8-0.3C11.3,35.6,11.2,35.9,10.9,36.3L10.9,36.3z M9.4,37.2c-0.4,0.1-1-0.1-1.1-0.6c0.1,0,0.2,0,0.3,0
		c0.4,0,0.8,0,1.3,0C9.9,36.9,9.7,37.2,9.4,37.2L9.4,37.2z M17.1,15.7c-1-2.2-3.4-3.6-5.7-4c-0.7-0.1-1.5-0.2-2.2-0.2l0,0l0,0l0,0
		l0,0c-0.7,0-1.5,0.1-2.2,0.2c-2.3,0.4-4.9,1.8-5.8,4c-0.5,1.3-0.8,2.6-0.6,4c0.1,1.4,0.7,2.5,1.5,3.7c0.8,1.3,1.9,2.5,2.6,3.8
		c0.3,0.6,0.7,1.3,1,2c0,0.1,0,0.2,0,0.3l0,0c-0.2,0-0.3,0.1-0.4,0.3l0,0C5,30,5,30.1,5,30.2c-0.1,0.3,0,0.6,0.1,1l0,0
		C4.3,31.3,4.6,32.6,5,33c0.1,0.1,0.2,0.2,0.4,0.2c0,0.1-0.1,0.2-0.1,0.3l0,0c-0.1,0.3,0,0.5,0.1,0.8c0.2,0.4,0.5,0.5,1,0.5l0,0
		c0.1,0.5,0.4,1.2,0.8,1.5c0.2,0.2,0.6,0.3,1,0.3l0,0c0.1,0.5,0.5,0.7,1.1,0.8c0.5,0,0.7-0.4,1.1-0.7l0,0c0.3,0,0.6-0.1,0.8-0.3
		c0.4-0.3,0.5-1.1,0.5-1.6c0.1,0,0.2-0.1,0.3-0.1c0.8-0.3,1.1-0.8,0.7-1.7c0.3-0.2,0.3-0.6,0.3-1c0-0.3-0.1-0.7-0.3-1
		c0.2-0.4,0.3-1.5-0.2-1.5c0-0.1,0-0.2,0-0.3c0.2-0.7,0.6-1.4,1-2c0.7-1.4,1.8-2.5,2.6-3.8c0.7-1.2,1.3-2.3,1.5-3.7
		C17.8,18.4,17.6,17,17.1,15.7L17.1,15.7z"/>
</g>
<rect x="83.6" y="28.8" class="st2" width="140.3" height="10.7"/>
<g class="st3">
	<path class="st0" d="M86.4,26l4,7.8l3.9-7.8h1.5v10.8h-1.1l0-9l-3.9,7.8h-0.7L86,27.8v9h-1.2V26H86.4z"/>
	<path class="st0" d="M106.3,32.7c0,2.4-1.7,4.1-4.1,4.1c-2.4,0-4.1-1.7-4.1-4.1c0-2.4,1.7-4.1,4.1-4.1
		C104.6,28.6,106.3,30.3,106.3,32.7z M99.3,32.8c0,1.8,1.2,3.1,2.9,3.1c1.7,0,2.9-1.2,2.9-3.1c0-1.8-1.2-3-2.9-3
		C100.5,29.7,99.3,31,99.3,32.8z"/>
	<path class="st0" d="M115.9,31.8v5h-1.2v-4.7c0-1.5-0.9-2.3-2.3-2.3c-1.6,0-2.6,1.1-2.7,2.7v4.4h-1.2v-8.1h1.2v1.8
		c0.6-1.2,1.7-1.8,3.1-1.8C114.8,28.6,115.9,29.8,115.9,31.8z"/>
	<path class="st0" d="M126.5,29.7c-1.7,0-2.9,1.2-2.9,3c0,1.8,1.2,3,2.9,3c1.1,0,1.9-0.4,2.5-1l0.7,0.7c-0.7,0.9-1.9,1.4-3.3,1.4
		c-2.4,0-4-1.7-4-4.1c0-2.4,1.7-4.1,4-4.1c1.3,0,2.4,0.4,3.1,1.2l-0.7,0.8C128.3,30.1,127.5,29.7,126.5,29.7z"/>
	<path class="st0" d="M136.5,36.8v-1.3c-0.6,0.9-1.7,1.3-3,1.3c-1.7,0-2.8-1.1-2.8-2.5c0-1.4,1.1-2.3,3-2.3h2.7v-0.5
		c0-1.2-0.7-1.9-2.2-1.9c-0.9,0-1.7,0.3-2.6,0.9l-0.5-0.8c1.1-0.7,1.9-1.1,3.3-1.1c2,0,3.1,1.1,3.1,2.8l0,5.4H136.5z M136.5,34v-1
		h-2.5c-1.4,0-2.1,0.4-2.1,1.3c0,0.9,0.7,1.5,1.9,1.5C135.1,35.9,136.2,35.2,136.5,34z"/>
	<path class="st0" d="M144.5,28.6v1.2c-1.7,0-2.8,1-2.9,2.7v4.3h-1.2v-8.1h1.2v1.8C142.1,29.3,143.1,28.7,144.5,28.6z"/>
	<path class="st0" d="M153.5,31.8v5h-1.2v-4.7c0-1.5-0.9-2.3-2.3-2.3c-1.6,0-2.6,1.1-2.7,2.7v4.4h-1.2v-8.1h1.2v1.8
		c0.6-1.2,1.7-1.8,3.2-1.8C152.4,28.6,153.5,29.8,153.5,31.8z"/>
	<path class="st0" d="M163.2,33.2h-6.6c0.2,1.6,1.4,2.7,2.9,2.7c1,0,1.9-0.4,2.5-1l0.7,0.7c-0.8,0.8-1.9,1.3-3.3,1.3
		c-2.4,0-4-1.7-4-4.1s1.7-4.1,4-4.1C162.1,28.6,163.4,30.5,163.2,33.2z M162.2,32.2c-0.1-1.6-1.1-2.6-2.7-2.6c-1.6,0-2.7,1-2.8,2.6
		H162.2z"/>
	<path class="st0" d="M169.5,36.3c-0.6,0.4-1.2,0.6-1.8,0.6c-1.2,0-2.1-0.7-2.1-2.3v-4.7h-1.2v-0.9h1.2v-2.1h1.2v2.1h2.6v0.9h-2.6
		v4.5c0,1,0.4,1.4,1.1,1.4c0.4,0,0.8-0.2,1.3-0.4L169.5,36.3z"/>
	<path class="st0" d="M183.4,25.4v11.5h-1.2v-1.7c-0.6,1.1-1.7,1.8-3.2,1.8c-2.3,0-3.9-1.7-3.9-4.1s1.6-4.1,3.9-4.1
		c1.5,0,2.6,0.7,3.2,1.8v-5.1H183.4z M182.2,32.8c0-1.8-1.2-3.1-2.9-3.1c-1.7,0-2.9,1.3-2.9,3.1c0,1.8,1.2,3.1,2.9,3.1
		C181,35.8,182.2,34.6,182.2,32.8z"/>
	<path class="st0" d="M187.3,26.8c0,0.2-0.1,0.4-0.2,0.6l-0.7,1.1h-0.7l0.5-1.1c-0.2-0.1-0.3-0.4-0.3-0.6c0-0.4,0.3-0.8,0.7-0.8
		C186.9,26,187.3,26.3,187.3,26.8z"/>
	<path class="st0" d="M194.5,36.8v-1.3c-0.6,0.9-1.7,1.3-3,1.3c-1.7,0-2.8-1.1-2.8-2.5c0-1.4,1.1-2.3,3-2.3h2.7v-0.5
		c0-1.2-0.7-1.9-2.2-1.9c-0.9,0-1.7,0.3-2.6,0.9l-0.5-0.8c1.1-0.7,1.9-1.1,3.3-1.1c2,0,3.1,1.1,3.1,2.8l0,5.4H194.5z M194.5,34v-1
		H192c-1.4,0-2.1,0.4-2.1,1.3c0,0.9,0.7,1.5,1.9,1.5C193.2,35.9,194.2,35.2,194.5,34z"/>
	<path class="st0" d="M205.9,25.4v11.5h-1.2v-1.7c-0.6,1.1-1.7,1.8-3.2,1.8c-2.3,0-3.9-1.7-3.9-4.1s1.6-4.1,3.9-4.1
		c1.5,0,2.6,0.7,3.2,1.8v-5.1H205.9z M204.7,32.8c0-1.8-1.2-3.1-2.9-3.1c-1.7,0-2.9,1.3-2.9,3.1c0,1.8,1.2,3.1,2.9,3.1
		C203.5,35.8,204.7,34.6,204.7,32.8z"/>
	<path class="st0" d="M213,28.6v1.2c-1.7,0-2.8,1-2.9,2.7v4.3h-1.2v-8.1h1.2v1.8C210.6,29.3,211.7,28.7,213,28.6z"/>
	<path class="st0" d="M221.7,33.2H215c0.2,1.6,1.4,2.7,2.9,2.7c1,0,1.9-0.4,2.5-1l0.7,0.7c-0.8,0.8-1.9,1.3-3.3,1.3
		c-2.4,0-4-1.7-4-4.1s1.7-4.1,4-4.1C220.5,28.6,221.8,30.5,221.7,33.2z M220.6,32.2c-0.1-1.6-1.1-2.6-2.7-2.6c-1.6,0-2.7,1-2.8,2.6
		H220.6z"/>
	<path class="st0" d="M225.8,29.7c-0.9,0-1.6,0.3-1.6,1.1c0,1.8,4.5,0.9,4.5,3.8c0,1.6-1.4,2.3-3,2.3c-1.2,0-2.3-0.4-3.1-1.1
		l0.5-0.9c0.7,0.6,1.7,1,2.7,1c1,0,1.7-0.4,1.7-1.2c0-2-4.5-1-4.5-3.8c0-1.5,1.3-2.2,2.8-2.2c1,0,1.9,0.3,2.6,0.7l-0.5,0.9
		C227.4,29.9,226.6,29.7,225.8,29.7z"/>
	<path class="st0" d="M232.8,29.7c-0.9,0-1.6,0.3-1.6,1.1c0,1.8,4.5,0.9,4.5,3.8c0,1.6-1.4,2.3-3,2.3c-1.2,0-2.3-0.4-3.1-1.1
		l0.5-0.9c0.7,0.6,1.7,1,2.7,1c1,0,1.7-0.4,1.7-1.2c0-2-4.5-1-4.5-3.8c0-1.5,1.3-2.2,2.8-2.2c1,0,1.9,0.3,2.6,0.7l-0.5,0.9
		C234.4,29.9,233.6,29.7,232.8,29.7z"/>
	<path class="st0" d="M244.7,33.2h-6.6c0.2,1.6,1.4,2.7,2.9,2.7c1,0,1.9-0.4,2.5-1l0.7,0.7c-0.8,0.8-1.9,1.3-3.3,1.3
		c-2.4,0-4-1.7-4-4.1s1.7-4.1,4-4.1C243.6,28.6,244.9,30.5,244.7,33.2z M243.7,32.2c-0.1-1.6-1.1-2.6-2.7-2.6c-1.6,0-2.7,1-2.8,2.6
		H243.7z"/>
</g>
<path class="st0" d="M7.4,30.5c0.4,0,1.2,0.3,1.6,0.3s2.7-0.3,3.1-0.6s0.5-0.6,0.5-0.2c0,0.3-0.1,1.2-0.1,1.4c0,0.2,0.1-0.1,0.2,0.1
	s-0.2,2-0.2,2l0.2,0.1l-0.3,0.7L11.5,35l-0.3,1.1l-1.4,1.2l-1.5-0.4L7,36.2L6.5,35l-0.8-0.3l-0.3-1.5L5,32.6l-0.1-0.8l0.2-0.4
	L5,30.2l0.4-0.4C5.4,29.8,7,30.5,7.4,30.5z"/>
</svg>
