<?xml version="1.0" ?><svg enable-background="new 0 0 32 32" version="1.1" viewBox="0 0 32 32" xml:space="preserve" xmlns="http://www.w3.org/2000/svg" xmlns:xlink="http://www.w3.org/1999/xlink"><g id="Style_2_copy_3"><g><g><path d="M16,0C7.163,0,0,7.163,0,16c0,8.836,7.163,16,16,16s16-7.164,16-16C32,7.163,24.837,0,16,0z" fill="#333333"/></g></g><g><g><path d="M17.091,15.771c1.381-0.286,2.527-1.534,2.527-3.361c0-1.954-1.426-3.73-4.214-3.73H7.69v14.64h7.957     c2.813,0,4.265-1.757,4.265-3.972C19.905,17.528,18.676,16.013,17.091,15.771z M10.809,11.423h3.908     c1.057,0,1.712,0.637,1.712,1.534c0,0.942-0.662,1.534-1.712,1.534h-3.908V11.423z M14.851,20.577h-4.042v-3.335h4.042     c1.209,0,1.865,0.745,1.865,1.668C16.722,19.959,16.016,20.577,14.851,20.577z M23.749,8.705c-0.942,0-1.738,0.789-1.738,1.731     s0.662,1.579,1.496,1.579c0.178,0,0.35-0.019,0.42-0.064c-0.178,0.789-0.987,1.712-1.693,2.088l1.209,0.987     c1.356-0.961,2.26-2.432,2.26-4.08C25.704,9.52,24.781,8.705,23.749,8.705z" fill="#FFFFFF"/></g></g></g></svg>