<?xml version="1.0" encoding="utf-8"?>
<!-- Generator: Adobe Illustrator 21.0.0, SVG Export Plug-In . SVG Version: 6.00 Build 0)  -->
<svg version="1.1" id="Calque_1" xmlns="http://www.w3.org/2000/svg" xmlns:xlink="http://www.w3.org/1999/xlink" x="0px" y="0px"
	 viewBox="0 0 32 32" style="enable-background:new 0 0 32 32;" xml:space="preserve">
<style type="text/css">
	.st0{fill:#FFFFFF;stroke:#E01C1C;stroke-width:0.5;stroke-miterlimit:10;}
</style>
<g>
	<path class="st0" d="M22,6.3c0.8,1.7,0.9,3.5,0.7,5.3c-0.2,1.7-0.4,3.5-0.5,5.1c0,0.7-0.1,1.7,0,2.5c0,0.3,0.1,0.5,0.1,0.8
		c0.1,0.1,0.1,0.1,0.1,0.2c0,0.2,0,0.2,0,0.5c-0.2,0.7-0.9,1.2-1.6,1.8c0,0-0.2,0.1-0.3,0.2l0,0l0,0c-0.2,0.1-0.3,0.2-0.6,0.3l0,0
		c-0.2-1.5-0.8-2.8-1.3-4.1c-0.3-0.7-0.4-1.5-0.4-2.3c0-0.9,0.2-1.7,0.5-2.5c0.6-1.5,1.1-2.8,0.9-4.5c0-1.3-0.5-2.8-1.5-3.4
		c-1.5-1.1-3.7,0.3-4.8,1.5c-0.5,0.6-0.7,1.4-0.8,2.2c-0.4-0.4-2.1-1.2-2.8-1.3c-0.5-0.1-1,0-1.4,0.1c-1,0.3-1.8,1.6-2,2.5
		c0,0.5,0.2,0.9,0.5,1.4c0.4,0.7,0.7,1.3,1.2,2c1,1.2,2.3,2.3,3.7,2.9c1.4,0.7,2.9,1.3,4.2,2.2c1.2,0.9,2.2,2.1,3,3.6
		c-0.2,0.1-0.6,0.2-0.8,0.3c-0.1,0.1-1.9,0.6-2.4,0.4l0,0c-0.1-0.1-0.1-0.2-0.3-0.3c-0.1-0.2-0.4-0.4-0.6-0.5
		c-0.6-0.5-1.4-0.9-2.1-1.3c-1.5-0.9-3.2-1.5-4.6-2.3c-1.8-0.8-3.2-1.9-4.1-3.4c-0.8-1.5-1.5-3.3-1.4-4.9c0.1-3.4,2.7-6.5,5.7-8.2
		L8.6,3l0,0l0,0l0,0l0,0h0.1c2.9-1.6,6.8-2.2,9.9-0.5C20,3.3,21.3,4.8,22,6.3L22,6.3z M12.9,10.3c0.2,0.2,0.4,0.5,0.5,0.7
		s0.2,0.4,0.3,0.7c0,0.2-0.1,0.5-0.4,0.2c-0.1-0.1-0.2-0.3-0.2-0.4C13.1,11.1,13,10.7,12.9,10.3L12.9,10.3z M12.8,10.8
		c0.1,0.4,0.3,1.9,1,1.5c0.9-0.5,0.1-1.5-0.8-2.3c0.1-2,1.6-3.5,3.6-3.9C18.2,5.8,19,7,19.4,8.2c0.3,0.8,0.3,1.9,0.2,2.8
		c-0.1,0.9-0.5,1.7-0.9,2.6c-0.6,1.5-0.7,3-0.3,4.5c0.4,1.5,1,2.9,1.3,4.5l0,0c-0.2,0.1-0.3,0.2-0.4,0.2c-0.7-1.3-1.7-2.6-2.8-3.5
		c-1.3-1-2.8-1.7-4.3-2.5c-1.8-0.6-3.2-1.9-4.3-3.5C7.5,12.6,7,11.9,7,11.2c0-0.9,0.8-1.9,1.5-2.3c1.2-0.7,3,0.2,4.1,1
		c0.1,0.1,0.2,0.2,0.3,0.3C12.8,10.4,12.8,10.5,12.8,10.8L12.8,10.8z M23,20.4C23,20.4,22.9,20.4,23,20.4c0,0.9-0.6,1.5-1.1,1.9
		c-0.7,0.7-1.4,1.1-2.2,1.5c-0.9,0.5-1.9,0.6-2.8,0.7c-0.4,0.1-0.9,0-1.2-0.1c-0.2,0-0.2,0-0.3-0.1c0.1-0.1,0-0.2,0.2-0.1
		c0,0,0,0,0.2,0c0.7,0.2,1,0,1.4-0.1c0.7-0.3,1.5-0.5,2.1-0.7c1.2-0.5,2.9-1.3,3.4-2.6l0,0c0-0.2,0-0.5,0.1-0.5
		C22.9,20.1,23,20.3,23,20.4L23,20.4z M23.5,21.3C23.5,21.4,23.5,21.4,23.5,21.3c0,0.3-0.1,0.3,0,0.5c-0.1,0.3-0.5,0.7-0.6,0.9
		c-0.7,0.8-1.5,1.4-2.6,1.9c-0.9,0.5-1.7,0.8-2.6,1c-0.5,0.1-1,0.1-1.4,0.1c-0.3-0.1-0.6-0.3-0.7-0.5c-0.1-0.1-0.2-0.3-0.1-0.5
		c0.3,0,0.6,0.1,1,0.2c0.5,0,1,0,1.5-0.1c0.9-0.2,1.9-0.6,2.8-1.1s2.6-1.7,2.6-2.9C23.4,21,23.5,21.3,23.5,21.3L23.5,21.3z M24,21.9
		L24,21.9c0,0.9-0.8,1.5-1.3,1.9c-0.7,0.5-1.4,1.1-2.3,1.6c-0.8,0.4-1.6,0.8-2.5,1.1c-0.5,0.1-1.8,0.5-2.1-0.1l0,0v-0.2l0.1-0.1l0,0
		l0,0l0,0c0,0,0,0,0.2,0c1.4,0.4,3.1-0.5,4.3-1c1.2-0.7,3-1.8,3.4-3.2C23.8,21.7,23.9,21.8,24,21.9L24,21.9z M24.2,22
		c0.3,0.3,0.4,0.7,0.5,0.9c0.1,0.5-0.4,1.1-0.7,1.4c-0.9,0.8-2,1.4-3,2c-1.1,0.6-2.3,1-3.4,1.3c-0.2,0.1-0.4,0.1-0.6,0.2
		c-0.3,0-0.5-0.1-0.6-0.4c-0.2-0.2-0.4-0.5-0.5-0.7c0.4,0.2,1,0.2,1.4,0.1c1-0.1,1.8-0.5,2.7-0.9c1.1-0.4,2-1.1,3-2
		C23.4,23.5,24.2,22.8,24.2,22L24.2,22z M17.5,28.3c-0.1-0.1-0.1-0.1,0-0.3c0.4-0.1,0.7-0.3,1-0.3c0.9-0.2,1.7-0.6,2.4-0.9
		c1.4-0.6,3-1.7,3.9-2.9l0.1,0.1l0,0c0,0.6-0.8,1.2-1.3,1.4c-0.7,0.5-1.6,1-2.5,1.5c-0.6,0.3-1.1,0.6-1.7,0.9
		C18.9,27.9,18.1,28.4,17.5,28.3L17.5,28.3z M25.4,24.6c0,0.5-0.3,0.8-0.6,1.1c-0.7,0.7-1.6,1.2-2.3,1.6c-0.7,0.4-1.3,0.7-2,1.1
		c-0.3,0.2-0.7,0.4-1,0.6c0,0,0,0-0.1,0.1s-0.3,0.2-0.5,0.1c-0.6,0.2-1-0.2-1.2-0.6c0.5,0,1-0.1,1.4-0.3c0.8-0.3,1.5-0.8,2.3-1.1
		c1-0.6,1.9-1.1,2.8-1.7c0.4-0.4,0.9-0.8,1-1.3C25.2,24.1,25.4,24.3,25.4,24.6L25.4,24.6z M24.7,26.3C24.7,26.3,24.6,26.4,24.7,26.3
		c-0.5,1-2,1.7-2.9,2.1c-0.4,0.2-0.8,0.3-1.4,0.5c-0.2,0.1-0.5,0.1-0.7,0.4c-0.1-0.1-0.1-0.1-0.2-0.2c1-0.4,1.9-1.1,2.8-1.6
		c0.8-0.4,1.7-0.9,2.4-1.5C24.7,26.2,24.7,26.3,24.7,26.3L24.7,26.3z M24.9,28c-0.3,0.8-1.4,1.2-2.1,1.5c-0.4,0.2-1.1,0.6-1.6,0.6
		c-0.3-0.1-0.9-0.2-1.2-0.6c0.2-0.2,1-0.4,1.2-0.5c0.3-0.2,0.7-0.3,1.1-0.4c0.9-0.5,2.1-0.9,2.7-1.9C25,27,25,27.4,24.9,28L24.9,28z
		 M23.9,29.8c-0.4,0.4-1.1,0.4-1.5-0.1c0.1-0.1,0.2-0.1,0.3-0.2c0.4-0.2,0.9-0.5,1.3-0.7C24.2,29.3,24.2,29.7,23.9,29.8L23.9,29.8z
		 M19.3,2.6c-2.3-1.8-5.7-1.8-8.4-0.9C10.1,2,9.2,2.3,8.4,2.8l0,0l0,0l0,0l0,0C7.7,3.3,7,3.8,6.2,4.4C4,6.2,2.1,9.1,2.4,12
		c0.2,1.7,0.7,3.3,1.7,4.6c0.9,1.4,2.3,2.3,3.7,3c1.6,0.8,3.5,1.6,5,2.5c0.7,0.5,1.5,0.9,2.2,1.6c0.1,0.1,0.1,0.2,0.2,0.3l0,0
		c-0.2,0.1-0.3,0.3-0.3,0.6l0,0c0,0.2,0,0.3,0.1,0.4c0.1,0.4,0.4,0.7,0.7,0.9l0,0c-0.7,0.5,0.2,1.8,0.9,2c0.2,0,0.3,0.1,0.6,0
		c0.1,0.1,0,0.3,0.1,0.4l0,0c0.1,0.4,0.3,0.6,0.6,0.8c0.5,0.3,0.9,0.2,1.3,0l0,0c0.4,0.5,1.1,1,1.8,1.1c0.3,0.1,0.9,0,1.2-0.2l0,0
		c0.4,0.5,1,0.5,1.6,0.3c0.6-0.3,0.5-0.9,0.7-1.4l0,0c0.3-0.2,0.6-0.5,0.7-0.8c0.3-0.6-0.1-1.4-0.4-2c0.1-0.1,0.2-0.2,0.3-0.3
		c0.7-0.8,0.6-1.5-0.2-2.2c0.2-0.4,0-0.9-0.2-1.2c-0.2-0.3-0.5-0.7-0.9-0.8c0-0.6-0.5-1.8-1.1-1.4c-0.1-0.1-0.1-0.2-0.2-0.3
		c-0.2-0.9-0.1-1.8-0.2-2.7c0-1.9,0.4-3.7,0.6-5.6c0.1-1.7,0-3.2-0.6-4.8C21.7,5,20.7,3.7,19.3,2.6L19.3,2.6z"/>
</g>
</svg>
