<?xml version="1.0" ?><svg enable-background="new 0 0 32 32" version="1.1" viewBox="0 0 32 32" xml:space="preserve" xmlns="http://www.w3.org/2000/svg" xmlns:xlink="http://www.w3.org/1999/xlink"><g id="Style_2_copy_3"><g><g><path d="M16,0C7.163,0,0,7.163,0,16c0,8.836,7.163,16,16,16s16-7.164,16-16C32,7.163,24.837,0,16,0z" fill="#333333"/></g></g><g><path d="M22.39,24.442c-0.469,0.304-0.994-0.04-1.562-0.087c-1.41-0.117-3.199,0-4.947,0    c-1.693,0-3.43-0.062-4.859,0c-0.739,0.033-1.535,0.287-2.084-0.086c-0.158-1.279,1.405-0.619,1.997-1.215    c0.104-0.105,0.377-0.843,0.434-1.302c0.161-1.313,0-3.486,0-5.642c0-2.039,0.136-4.163,0-5.554    c-0.052-0.524-0.28-1.3-0.434-1.476C10.46,8.54,9.104,8.954,9.285,7.952c0.269-0.45,0.926-0.26,1.302-0.26    c3.15,0,7.635,0.195,10.588-0.174c0.284-0.035,0.738-0.245,1.042,0.174c0.112,0.425-0.145,0.802-0.174,1.388    c-0.038,0.782,0.418,2.473-0.521,2.257c-0.466-0.107-0.261-1.033-0.52-1.475c-0.479-0.813-2.991-0.949-4.601-0.955    c-0.919-0.003-2.274,0.017-2.864,0.608c-0.136,1.6-0.148,3.78,0,5.38c1.086,0.2,3.126,0.313,4.427,0.174    c0.331-0.036,0.818-0.102,1.041-0.26c0.701-0.494,0.192-1.379,0.868-1.909c0.861,0.012,0.556,0.938,0.521,1.736    c-0.026,0.591-0.028,1.311,0,1.822c0.044,0.794,0.392,1.646-0.26,1.822c-0.948-0.323-0.481-1.316-1.302-1.822    c-1.225-0.758-3.471-0.045-5.207-0.174c-0.297,0.878-0.175,1.977-0.175,3.125c0,1.015-0.241,2.244,0.175,3.037    c0.489,0.939,2.886,0.802,4.252,0.693c1.592-0.124,3.266-0.448,3.732-1.387c0.385-0.777-0.073-1.37,0.607-1.997    c1.598,0.306,0.499,1.748,0.347,2.95C22.484,23.339,22.752,23.971,22.39,24.442z" fill="#FFFFFF"/></g></g></svg>